<?xml version="1.0" encoding="UTF-8"?>
<svg data-bbox="0 0 175 175" xmlns="http://www.w3.org/2000/svg" viewBox="0 0 175 175" height="175" width="175" data-type="color">
    <g>
        <path fill-opacity=".75" fill="#FE970B" d="M143.75 0H31.25C14 .02.02 14 0 31.25v112.5C.02 161 14 174.979 31.25 175h112.5c17.25-.021 31.229-14 31.25-31.25V31.25C174.979 14 161 .02 143.75 0zm18.75 143.75c0 10.355-8.395 18.75-18.75 18.75H31.25c-10.355 0-18.75-8.395-18.75-18.75V31.25c0-10.355 8.395-18.75 18.75-18.75h112.5c10.355 0 18.75 8.395 18.75 18.75v112.5z" data-color="1"/>
        <path fill="#E5E5E5" d="M118.75 81.25h-25v-25a6.25 6.25 0 10-12.5 0v25h-25a6.25 6.25 0 000 12.5h25v25a6.25 6.25 0 1012.5 0v-25h25a6.25 6.25 0 100-12.5z" data-color="2"/>
    </g>
</svg>
