<?xml version="1.0" encoding="UTF-8"?>
<svg data-bbox="0.733 0.846 154.801 185.763" xmlns="http://www.w3.org/2000/svg" viewBox="0 0 156 187" height="187" width="156" data-type="color">
    <g>
        <path fill="#CB7E14" d="M152.681 65.537c1.576 0 2.853-1.218 2.853-2.721V36.528c0-5.374-4.393-9.799-10.001-10.072-33.837-1.643-52.023-14.841-59.85-22.562-1.994-1.966-4.674-3.048-7.55-3.048-2.875 0-5.556 1.082-7.547 3.048-7.83 7.72-26.016 20.918-59.853 22.562-5.607.273-10 4.697-10 10.072v75.869c0 21.851 12.326 42.212 32.169 53.139l32.278 17.772c3.996 2.201 8.474 3.301 12.954 3.301 4.478 0 8.958-1.1 12.953-3.301l32.279-17.771c19.842-10.927 32.168-31.289 32.168-53.139V75.516c0-1.504-1.277-2.722-2.853-2.722-1.575 0-2.853 1.218-2.853 2.722v36.882c0 19.912-11.233 38.467-29.315 48.425l-32.28 17.772c-6.23 3.432-13.97 3.432-20.2 0l-32.279-17.772C17.672 150.865 6.44 132.31 6.44 112.398v-75.87c0-2.474 2.014-4.511 4.585-4.636 35.792-1.739 55.25-15.917 63.663-24.215.908-.895 2.132-1.388 3.446-1.388 1.315 0 2.539.493 3.447 1.389 8.413 8.296 27.871 22.475 63.662 24.214 2.572.125 4.586 2.162 4.586 4.636v26.288c0 1.503 1.277 2.721 2.853 2.721z" data-color="1"/>
        <path fill="#CB7E14" d="M18.959 72.794c-1.576 0-2.853 1.218-2.853 2.72v36.883c0 16.628 9.38 32.125 24.48 40.443l32.28 17.772a10.95 10.95 0 005.267 1.348c1.844 0 3.666-.466 5.27-1.348l32.279-17.772c15.1-8.318 24.48-23.815 24.48-40.443v-65.84c0-3.213-2.514-5.935-5.845-6.332-25.591-3.07-42.425-12.343-52.045-19.583a6.931 6.931 0 00-8.28.002c-9.616 7.238-26.451 16.51-52.039 19.58-3.333.398-5.847 3.12-5.847 6.333v16.259c0 1.503 1.277 2.72 2.853 2.72 1.576 0 2.853-1.217 2.853-2.72V46.557a.95.95 0 01.851-.932c26.893-3.226 44.679-13.042 54.861-20.706.358-.27.86-.27 1.216-.002 10.185 7.666 27.971 17.482 54.867 20.708a.95.95 0 01.848.932v65.84c0 14.69-8.287 28.382-21.626 35.73l-32.278 17.771c-1.473.811-3.362.81-4.833.001L43.44 148.128c-13.34-7.349-21.628-21.04-21.628-35.731V75.515c0-1.503-1.277-2.721-2.853-2.721z" data-color="1"/>
        <path fill="#E5E5E5" d="M43.547 87.342c2.318 0 4.495.86 6.134 2.423l14.908 14.216c1.115 1.063 2.92 1.062 4.035 0l16.332-15.577a2.633 2.633 0 000-3.848c-1.115-1.063-2.921-1.063-4.035 0L66.607 98.208 53.716 85.917C51 83.327 47.389 81.9 43.548 81.9c-3.842 0-7.453 1.427-10.168 4.016-2.718 2.592-4.214 6.038-4.214 9.701 0 3.665 1.497 7.11 4.214 9.699l23.055 21.99c2.714 2.592 6.326 4.02 10.172 4.02 3.843 0 7.454-1.428 10.166-4.019l46.114-43.982c2.718-2.59 4.215-6.035 4.215-9.699 0-3.664-1.497-7.11-4.214-9.701-2.716-2.59-6.327-4.016-10.168-4.016-3.842 0-7.453 1.426-10.168 4.016l-12.215 11.65a2.633 2.633 0 000 3.849c1.114 1.062 2.92 1.062 4.034 0l12.216-11.65c1.637-1.563 3.815-2.423 6.133-2.423 2.317 0 4.495.86 6.133 2.422 1.64 1.564 2.543 3.643 2.543 5.853s-.903 4.287-2.543 5.85L72.736 123.46c-1.635 1.562-3.812 2.423-6.129 2.423-2.32 0-4.498-.861-6.135-2.425l-23.058-21.992c-1.639-1.562-2.542-3.64-2.542-5.85 0-2.21.903-4.288 2.543-5.852 1.637-1.563 3.815-2.423 6.132-2.423z" data-color="2"/>
    </g>
</svg>
