<?xml version="1.0" encoding="UTF-8"?>
<svg data-bbox="0.299 0.846 181.251 181.256" xmlns="http://www.w3.org/2000/svg" viewBox="0 0 182 183" height="183" width="182" data-type="color">
    <g>
        <path fill="#CB7E14" d="M55.684 62.741a3.54 3.54 0 00-5.695.973L1.454 164.96c-.026.055-.051.11-.075.167-2.046 4.906-1.15 9.952 2.397 13.499 2.292 2.292 5.208 3.476 8.31 3.476 1.698 0 3.452-.355 5.189-1.08.056-.023.112-.049.167-.075l101.246-48.534a3.541 3.541 0 00.972-5.695L55.684 62.741zm-1.472 8.54l35.812 35.813c-13.856-.57-29.063-5.902-45.354-15.908l9.542-19.904zM14.472 174.52c-1.31.53-3.719 1.072-5.69-.9-1.971-1.971-1.43-4.38-.9-5.69l9.555-19.933c6.838 5.729 13.753 10.82 20.65 15.203l-23.615 11.32zm69.381-33.259c-4.245-1.054-8.637-2.507-13.08-4.339a3.54 3.54 0 00-2.699 6.546c2.097.864 4.187 1.648 6.26 2.356L45.679 159.56c-8.348-4.981-16.768-11.078-25.08-18.159l9.905-20.661a200.315 200.315 0 009.13 6.807 3.536 3.536 0 004.93-.867 3.54 3.54 0 00-.866-4.93 195.63 195.63 0 01-10.054-7.56l7.95-16.585c18.169 11.045 35.248 16.62 50.91 16.62 1.51 0 3.01-.053 4.495-.157l14.122 14.121-27.267 13.071z" data-color="1"/>
        <path fill-opacity=".72" fill="#FF6D6D" d="M69.045 42.103c.68.618 1.755 1.594 2.175 2.185-.489.55-1.481 1.45-2.178 2.083a11.415 11.415 0 00-3.744 7.957 11.415 11.415 0 002.98 8.274 11.414 11.414 0 008.51 3.757c2.865 0 5.589-1.051 7.72-2.991 1.86-1.69 3.97-3.605 5.922-6.483 2.625-3.87 3.901-8.008 3.901-12.65 0-10.21-5.22-14.95-9.825-19.133-.68-.618-1.755-1.594-2.175-2.185.488-.548 1.478-1.448 2.178-2.083 4.686-4.264 5.029-11.546.764-16.232A11.412 11.412 0 0077.316.86a11.433 11.433 0 00-8.271 2.976c-1.86 1.69-3.969 3.603-5.923 6.485-2.626 3.87-3.902 8.008-3.902 12.65 0 10.212 5.22 14.951 9.825 19.133zm7.524 17.172a4.38 4.38 0 01-3.055-1.438 4.383 4.383 0 01-1.143-3.176 4.38 4.38 0 011.434-3.052c.883-.803 1.735-1.577 2.442-2.333l3.364 3.399c1.513 1.528 1.534 3.982.067 5.51a4.369 4.369 0 01-3.11 1.09zm10.683-15.04c0 1.988-.325 3.797-1.002 5.525a11.022 11.022 0 00-1.607-2.066l-9.108-9.2-.016-.015a43.211 43.211 0 00-1.715-1.617c-4.192-3.807-7.504-6.815-7.504-13.893 0-1.987.325-3.796 1.002-5.524.443.735.977 1.43 1.607 2.066l9.107 9.2c.006.006.013.01.019.017a43.19 43.19 0 001.713 1.615c4.192 3.807 7.504 6.815 7.504 13.893zm-10.48-36.31a4.38 4.38 0 013.267 1.442 4.416 4.416 0 01-.297 6.234c-.882.801-1.731 1.573-2.436 2.328l-3.365-3.4c-1.513-1.527-1.534-3.981-.066-5.51a4.373 4.373 0 012.896-1.093z" data-color="2"/>
        <path fill="#E5E5E5" d="M137.19 50.218a10.586 10.586 0 007.509 3.105c2.72 0 5.439-1.035 7.509-3.105l5.007-5.007c4.14-4.14 4.14-10.877 0-15.018l-5.007-5.006c-4.14-4.14-10.877-4.141-15.018 0l-5.006 5.006c-2 2-3.102 4.668-3.102 7.51 0 2.841 1.101 5.508 3.102 7.509l5.006 5.006zm0-15.019l5.006-5.006a3.512 3.512 0 012.503-1.028c.952 0 1.84.365 2.503 1.028l5.006 5.006a3.513 3.513 0 011.029 2.503c0 .951-.366 1.84-1.029 2.503l-5.006 5.006a3.513 3.513 0 01-2.503 1.029c-.951 0-1.84-.366-2.503-1.029l-5.006-5.006a3.512 3.512 0 01-1.028-2.503c0-.95.365-1.84 1.028-2.503z" data-color="3"/>
        <path fill-opacity=".72" fill="#FF6D6D" d="M177.799 97.128a11.426 11.426 0 00-8.274-2.98 11.415 11.415 0 00-7.96 3.747c-.631.694-1.531 1.686-2.081 2.175-.59-.42-1.567-1.495-2.185-2.176-4.182-4.605-8.922-9.824-19.133-9.824-4.642 0-8.78 1.276-12.65 3.902-2.879 1.953-4.794 4.062-6.481 5.92-.044.048-.084.097-.127.146l-.002.003a11.404 11.404 0 00-2.851 8.126 11.41 11.41 0 003.744 7.957c4.685 4.265 11.967 3.921 16.237-.77.629-.694 1.529-1.684 2.078-2.172.59.419 1.566 1.494 2.184 2.175 4.182 4.605 8.922 9.825 19.134 9.825 4.642 0 8.779-1.277 12.649-3.902 2.879-1.952 4.793-4.06 6.482-5.92 4.265-4.687 3.922-11.968-.764-16.232zm-10.996 5.529a4.383 4.383 0 013.055-1.438 4.406 4.406 0 013.176 1.144 4.414 4.414 0 01.348 6.165c-1.53 1.467-3.983 1.444-5.51-.067l-3.399-3.365c.756-.707 1.529-1.557 2.33-2.439zm-36.008 5.937a4.382 4.382 0 01-3.055 1.437 4.364 4.364 0 01-3.176-1.144 4.379 4.379 0 01-1.438-3.054 4.38 4.38 0 011.092-3.112c1.53-1.465 3.982-1.442 5.508.069l3.399 3.365c-.755.706-1.528 1.556-2.33 2.439zm14.744.003a42.301 42.301 0 00-1.62-1.717l-.012-.014-9.2-9.108a11.038 11.038 0 00-2.066-1.606c1.728-.677 3.538-1.003 5.525-1.003 7.077 0 10.085 3.311 13.893 7.504a42.68 42.68 0 001.614 1.712c.007.006.012.013.018.02l9.2 9.107c.636.63 1.331 1.164 2.066 1.607-1.728.677-3.537 1.003-5.524 1.003-7.079-.001-10.086-3.312-13.894-7.505z" data-color="2"/>
        <path fill="#DEDEDE" d="M168.165 17.777a3.54 3.54 0 000-7.08h-.003a3.541 3.541 0 00.003 7.08z" data-color="4"/>
        <path fill="#CB7E14" d="M119.804 15.221a3.54 3.54 0 000-7.08h-.002a3.54 3.54 0 10.002 7.08z" data-color="1"/>
        <path fill-opacity=".72" fill="#FF6D6D" d="M108.728 47.322a3.54 3.54 0 000-7.08h-.002a3.54 3.54 0 10.002 7.08z" data-color="2"/>
        <path fill="#CB7E14" d="M106.027 79.916a3.54 3.54 0 000-7.08h-.003a3.54 3.54 0 10.003 7.08z" data-color="1"/>
        <path fill="#CB7E14" d="M167.181 62.597v.003a3.539 3.539 0 107.079-.003 3.54 3.54 0 00-7.079 0z" data-color="1"/>
        <path fill="#E5E5E5" d="M135.079 73.673v.003a3.54 3.54 0 107.08-.003 3.54 3.54 0 00-7.08 0z" data-color="3"/>
    </g>
</svg>
